HIERARCHY
	ROOT Hips
	{
		OFFSET 0 0 0 
		CHANNELS 6 Xposition Yposition Zposition Zrotation Xrotation Yrotation
		JOINT LHipJoint
		{
			OFFSET 0 0 0 
			CHANNELS 3 Zrotation Xrotation Yrotation
			JOINT LeftUpLeg
			{
				OFFSET 0.0783705 -0.0912565 0.0336595 
				CHANNELS 3 Zrotation Xrotation Yrotation
				JOINT LeftLeg
				{
					OFFSET 0.117854 -0.323802 0 
					CHANNELS 3 Zrotation Xrotation Yrotation
					JOINT LeftFoot
					{
						OFFSET 0.135318 -0.371784 0 
						CHANNELS 3 Zrotation Xrotation Yrotation
						JOINT LeftToeBase
						{
							OFFSET 0.0102135 -0.028061 0.104268 
							CHANNELS 3 Zrotation Xrotation Yrotation
							End Site
							{
								OFFSET 0 -0 0.0542675
							}
						}
					}
				}
			}
		}
		JOINT RHipJoint
		{
			OFFSET 0 0 0 
			CHANNELS 3 Zrotation Xrotation Yrotation
			JOINT RightUpLeg
			{
				OFFSET -0.075711 -0.0912565 0.0336595 
				CHANNELS 3 Zrotation Xrotation Yrotation
				JOINT RightLeg
				{
					OFFSET -0.124412 -0.341819 0 
					CHANNELS 3 Zrotation Xrotation Yrotation
					JOINT RightFoot
					{
						OFFSET -0.135017 -0.370955 0 
						CHANNELS 3 Zrotation Xrotation Yrotation
						JOINT RightToeBase
						{
							OFFSET -0.009875 -0.0271315 0.111076 
							CHANNELS 3 Zrotation Xrotation Yrotation
							End Site
							{
								OFFSET -0 -0 0.0574575
							}
						}
					}
				}
			}
		}
		JOINT LowerBack
		{
			OFFSET 0 0 0 
			CHANNELS 3 Zrotation Xrotation Yrotation
			JOINT Spine
			{
				OFFSET -0.0007835 0.106437 -0.007921 
				CHANNELS 3 Zrotation Xrotation Yrotation
				JOINT Spine1
				{
					OFFSET 0.003049 0.106663 -0.0005215 
					CHANNELS 3 Zrotation Xrotation Yrotation
					JOINT Neck
					{
						OFFSET 0 0 0 
						CHANNELS 3 Zrotation Xrotation Yrotation
						JOINT Neck1
						{
							OFFSET -0.00252 0.089216 0.0066935 
							CHANNELS 3 Zrotation Xrotation Yrotation
							JOINT Head
							{
								OFFSET -9e-005 0.08844 -0.0166515 
								CHANNELS 3 Zrotation Xrotation Yrotation
								End Site
								{
									OFFSET 0.000367 0.0906245 -0.0063595
								}
							}
						}
					}
					JOINT LeftShoulder
					{
						OFFSET 0 0 0 
						CHANNELS 3 Zrotation Xrotation Yrotation
						JOINT LeftArm
						{
							OFFSET 0.1861 0.047094 -0.0271585 
							CHANNELS 3 Zrotation Xrotation Yrotation
							JOINT LeftForeArm
							{
								OFFSET 0.257301 -0 0 
								CHANNELS 3 Zrotation Xrotation Yrotation
								JOINT LeftHand
								{
									OFFSET 0.182226 -0 -0 
									CHANNELS 3 Zrotation Xrotation Yrotation
									JOINT LeftFingerBase
									{
										OFFSET 0 0 0 
										CHANNELS 3 Zrotation Xrotation Yrotation
										JOINT LFingers
										{
											OFFSET 0.028114 -0 0 
											CHANNELS 3 Zrotation Xrotation Yrotation
											End Site
											{
												OFFSET 0.022666 -0 0
											}
										}
									}
									JOINT LThumb
									{
										OFFSET 0 0 0 
										CHANNELS 3 Zrotation Xrotation Yrotation
										End Site
										{
											OFFSET 0.0230125 -0 0.0230125
										}
									}
								}
							}
						}
					}
					JOINT RightShoulder
					{
						OFFSET 0 0 0 
						CHANNELS 3 Zrotation Xrotation Yrotation
						JOINT RightArm
						{
							OFFSET -0.165127 0.0613395 -0.0234705 
							CHANNELS 3 Zrotation Xrotation Yrotation
							JOINT RightForeArm
							{
								OFFSET -0.266957 -0 0 
								CHANNELS 3 Zrotation Xrotation Yrotation
								JOINT RightHand
								{
									OFFSET -0.178239 -0 -0 
									CHANNELS 3 Zrotation Xrotation Yrotation
									JOINT RightFingerBase
									{
										OFFSET 0 0 0 
										CHANNELS 3 Zrotation Xrotation Yrotation
										JOINT RFingers
										{
											OFFSET -0.0428735 -0 0 
											CHANNELS 3 Zrotation Xrotation Yrotation
											End Site
											{
												OFFSET -0.034566 -0 0
											}
										}
									}
									JOINT RThumb
									{
										OFFSET 0 0 0 
										CHANNELS 3 Zrotation Xrotation Yrotation
										End Site
										{
											OFFSET -0.0350935 -0 0.0350935
										}
									}
								}
							}
						}
					}
				}
			}
		}
	}
MOTION
Frames:	17
Frame Time:	0.0166667
-0.485475 0.870885 0.745365 -1.38534 -4.64273 -165.866 -0 0 -0 -25.5086 -11.5175 -1.87997 -2.58049 27.0357 10.7042 2.15528 -18.9084 4.11109 -0.479956 -12.1676 -4.50102 -0 0 -0 17.1977 -33.3129 6.1082 7.92762 43.0921 -19.9075 -1.28312 -16.0319 -2.34235 0.0594519 4.32257 -1.57649 -6.31815 5.52553 -0.668306 3.01476 2.83283 -1.34044 6.74419 0.0543943 -0.8325 -4.55518 -12.3067 1.43734 -0.102575 27.6175 1.59982 1.20443 10.8819 -0.370971 -0 0 -0 -87.7317 21.975 -1.75224 17.3402 -4.85609 -31.0797 0 -24.7455 0 15.5616 10.2629 32.6101 -7.125 0 0 -7.30962 -2.48791 63.696 -0 0 -0 84.1915 11.424 -2.38518 -19.3005 -6.12346 34.9234 0 -3.5386 0 154.864 -3.01574 6.3975 7.125 0 -0 -179.542 -1.12762 -112.901 
-0.48805 0.871885 0.741315 -1.63597 -5.08435 -166.733 -0 0 -0 -26.0129 -11.0019 -1.60928 -2.35949 25.9642 10.209 2.37657 -18.7202 5.0556 -0.455435 -11.8587 -4.38323 -0 0 -0 17.6782 -34.5045 7.02391 6.50601 39.972 -17.7644 -1.55293 -14.1666 -4.80599 0.159907 7.07046 -2.58749 -7.03598 5.33475 -0.747739 3.27541 2.85326 -1.47233 7.43557 0.23457 -0.919608 -5.12133 -12.0313 1.57593 -0.213032 27.3879 1.92966 1.33447 10.7286 -0.290478 -0 0 -0 -88.0138 20.8037 -3.12695 16.9265 -4.61142 -30.2834 0 -27.7923 0 12.6994 7.46513 29.9655 -7.125 0 0 -11.05 -3.03542 60.1713 -0 0 -0 83.7631 12.4322 -1.80053 -19.9358 -6.57478 36.1975 0 -12.546 0 155.682 -1.68663 3.72652 7.125 0 -0 -179.306 -2.00015 -115.867 
-0.49116 0.873585 0.73672 -2.01864 -5.43463 -167.304 -0 0 -0 -26.6668 -10.1426 -1.28783 -2.10092 24.6256 9.60383 2.5124 -18.5294 5.70716 -0.471331 -12.0598 -4.45992 -0 0 -0 17.694 -35.5398 7.3034 5.37241 37.0432 -15.9443 -1.51138 -11.2978 -7.43649 0.154492 6.95101 -2.54331 -6.85756 5.62011 -0.962226 2.77245 2.55561 -1.74764 6.82363 -0.207768 -1.01121 -3.9332 -12.3396 2.04916 -0.728859 28.2952 2.38716 1.06576 11.136 -0.0961096 -0 0 -0 -87.4526 21.0925 -3.68457 17.2623 -4.80937 -30.9293 0 -34.4693 0 14.7235 10.8033 35.4995 -7.125 0 0 -7.51863 -2.98454 66.5288 -0 0 -0 84.8317 13.5846 -1.98958 -20.7254 -7.1656 37.8033 0 -18.0711 0 156.384 0.254787 -0.582706 7.125 0 -0 -179.291 -2.75742 -120.58 
-0.49316 0.875205 0.732345 -1.60228 -5.52483 -167.927 -0 0 -0 -26.2545 -9.49427 -0.893338 -1.8951 23.4845 9.099 2.64641 -18.3957 6.32798 -0.489979 -12.2905 -4.54805 -0 0 -0 19.1337 -35.9794 8.69777 4.43894 34.24 -14.343 -1.41129 -9.21786 -10.1415 0.388216 10.9645 -4.04353 -6.27431 5.89521 -0.998783 2.75763 2.51478 -1.78702 6.48497 -0.418334 -1.01803 -3.96612 -12.3605 2.13665 -0.168369 28.5863 2.31629 1.26017 11.2409 -0.0896192 -0 0 -0 -87.1888 21.1387 -4.97964 17.2969 -4.83008 -30.9961 0 -38.8696 0 15.5117 10.9611 34.4147 -7.125 0 0 -6.91175 -2.61222 65.6053 -0 0 -0 85.3949 14.2819 -1.6142 -21.2526 -7.57916 38.8903 0 -21.1784 0 157.063 1.13376 -2.67702 7.125 0 -0 -179.268 -3.40013 -122.837 
-0.495455 0.87616 0.728435 -1.87142 -5.76577 -168.455 -0 0 -0 -26.7168 -8.93519 -0.555542 -1.74414 22.5976 8.71315 2.76487 -18.1319 7.01233 -0.565146 -13.179 -4.88907 -0 0 -0 19.4814 -36.4909 9.40791 3.72271 31.7734 -13.0285 -1.28295 -7.96622 -12.2086 0.25458 8.90392 -3.26883 -6.35497 5.90192 -1.04755 2.63934 2.67388 -1.86513 6.4036 -0.245857 -1.07221 -4.18324 -11.8017 1.99243 0.0269928 27.5501 2.16104 1.29761 10.7365 -0.0891608 -0 0 -0 -87.0839 22.0228 -6.36904 18.0024 -5.26385 -32.3644 0 -45.0778 0 16.9817 13.6237 37.6433 -7.125 0 0 -4.32179 -1.9772 69.5384 -0 0 -0 85.6725 15.898 -0.897844 -22.1386 -8.3109 40.747 0 -22.1007 0 157.576 1.50804 -3.64907 7.125 0 -0 -179.237 -3.8788 -123.866 
-0.497405 0.876995 0.724015 -2.12856 -6.02237 -168.678 -0 0 -0 -27.1349 -8.34834 -0.356275 -1.61578 21.807 8.37366 2.81448 -18.0933 7.24514 -0.574425 -13.2849 -4.92994 -0 0 -0 19.7923 -36.7844 10.7604 3.19307 29.7217 -11.9928 -1.68114 -8.92396 -14.6603 0.160011 7.07385 -2.58872 -6.49908 5.75522 -1.11392 2.59365 2.81356 -1.95796 6.43189 -0.000499903 -1.1364 -4.15026 -12.0881 2.04077 0.308321 28.0014 2.11702 1.39573 10.959 -0.101654 -0 0 -0 -87.1015 23.1362 -7.96267 18.4291 -5.5374 -33.1993 0 -49.5047 0 18.4437 14.6176 37.1153 -7.125 0 0 -2.80504 -1.27524 69.4278 -0 0 -0 85.97 17.3942 -0.210004 -22.9199 -8.99627 42.4182 0 -23.5793 0 158.373 2.08969 -5.2548 7.125 0 -0 -179.233 -4.61282 -125.552 
-0.499 0.876485 0.72037 -2.49487 -6.51559 -169.021 -0 0 -0 -27.6404 -8.25416 0.17087 -1.49589 21.0333 8.04534 2.72428 -17.7618 7.16479 -0.647629 -14.0837 -5.2391 -0 0 -0 20.1227 -37.3348 12.1745 2.84693 28.2512 -11.2785 -2.28958 -10.5019 -16.4426 0.10186 5.65155 -2.06414 -6.7616 5.79533 -1.24858 2.50247 2.68442 -2.14636 6.49937 -0.118973 -1.2198 -3.92239 -11.7446 2.16413 -0.0983734 27.9637 2.29451 1.24673 10.8801 -0.0589598 -0 0 -0 -87.0981 24.0048 -9.4991 18.6656 -5.69284 -33.6649 0 -51.0888 0 17.3845 13.8134 37.3297 -7.125 0 0 -3.95447 -1.79075 69.3252 -0 0 -0 86.1424 19.8943 0.449528 -23.6676 -9.68992 44.0509 0 -25.2135 0 159.575 2.72951 -7.28721 7.125 0 -0 -179.264 -5.71486 -127.644 
-0.501135 0.875605 0.71532 -3.13041 -6.63437 -169.702 -0 0 -0 -28.32 -7.73889 1.0206 -1.39899 20.3803 7.77119 2.68762 -17.75 7.02425 -0.604788 -13.622 -5.0602 -0 0 -0 20.151 -37.4664 13.148 2.62776 27.2574 -10.8079 -3.64018 -14.2837 -16.9451 0.726846 14.896 -5.55597 -7.03883 5.66962 -1.1241 2.30079 3.02855 -2.0016 6.42074 0.287339 -1.18441 -4.32214 -12.3413 1.93984 0.397679 27.8871 2.02448 1.43806 10.9668 -0.137511 -0 0 -0 -86.4115 26.1791 -12.0646 18.7839 -5.77143 -33.898 0 -52.0308 0 15.0573 10.0383 32.9403 -7.125 0 0 -7.79201 -2.68641 63.907 -0 0 -0 86.0942 22.3388 1.73829 -24.3576 -10.3651 45.5899 0 -26.4471 0 160.724 3.37474 -9.55472 7.125 0 -0 -179.407 -6.74113 -129.965 
-0.50284 0.875825 0.710995 -3.02929 -6.81032 -169.69 -0 0 -0 -28.2983 -7.27132 1.08241 -1.33192 19.9133 7.57653 2.67125 -17.8652 6.85901 -0.56799 -13.2117 -4.90174 -0 0 -0 20.6839 -37.7204 13.8177 2.49122 26.6105 -10.5064 -4.6494 -16.2806 -18.5284 1.26614 19.4415 -7.38121 -6.6473 5.6217 -1.13707 2.31899 2.9717 -1.99348 6.21697 0.23855 -1.17001 -3.85713 -11.8686 1.73858 0.415813 27.8312 1.5515 1.24822 10.8703 -0.311897 -0 0 -0 -85.778 28.8586 -14.1456 18.6794 -5.702 -33.6921 0 -51.2131 0 16.8687 13.8235 38.2368 -7.125 0 0 -4.26864 -2.00822 70.1491 -0 0 -0 86.1441 24.7995 2.53159 -25.0375 -11.0658 47.1404 0 -27.491 0 162.161 3.66632 -11.2384 7.125 0 -0 -179.523 -8.06302 -131.606 
-0.504165 0.87479 0.70646 -3.50346 -7.07779 -169.812 -0 0 -0 -28.807 -7.11503 1.54833 -1.28359 19.5683 7.43356 2.57946 -17.8948 6.46206 -0.529652 -12.7681 -4.73104 -0 0 -0 20.5463 -38.0308 14.0912 2.47252 26.5199 -10.4646 -5.10944 -16.9358 -19.5916 1.37939 20.2457 -7.71488 -6.84761 5.83649 -1.21711 2.17128 2.76732 -2.11547 6.19459 -0.0713841 -1.2079 -3.99503 -11.0236 1.61124 0.624428 27.3289 1.28708 1.26961 10.5194 -0.411923 -0 0 -0 -85.1282 31.6724 -15.8822 19.1211 -5.99977 -34.5665 0 -54.1273 0 16.6652 12.4675 35.7983 -7.125 0 0 -5.22853 -2.16551 67.4371 -0 0 -0 86.0731 27.9156 3.66211 -25.4179 -11.4742 48.0243 0 -27.8884 0 163.655 3.70256 -12.4181 7.125 0 -0 -179.619 -9.4704 -132.685 
-0.505775 0.873325 0.70068 -4.27232 -7.22288 -169.609 -0 0 -0 -29.5764 -6.72355 2.2084 -1.24885 19.3152 7.32911 2.4088 -17.9465 5.73669 -0.561726 -13.1409 -4.87444 -0 0 -0 19.692 -38.6591 12.959 2.56902 26.9821 -10.6791 -5.0626 -16.485 -20.4166 1.24513 19.2877 -7.3178 -7.22473 5.52229 -1.38975 2.03317 3.00198 -2.35063 6.251 0.396088 -1.36003 -4.8882 -10.1436 1.04747 1.3206 26.2786 0.502761 1.48221 9.9794 -0.731163 -0 0 -0 -84.37 33.9558 -18.338 19.4663 -6.23921 -35.2544 0 -54.6305 0 10.0358 6.09155 30.9485 -7.125 0 0 -13.7921 -3.90293 60.4978 -0 0 -0 85.5303 30.9404 5.44555 -25.7886 -11.8839 48.8973 0 -28.1757 0 165.203 3.75405 -13.9204 7.125 0 -0 -179.827 -10.9166 -134.088 
-0.50723 0.87226 0.69576 -4.5667 -7.27954 -169.256 -0 0 -0 -29.8746 -6.23365 2.57574 -1.20966 19.0248 7.20974 2.2935 -17.9227 5.29609 -0.58979 -13.4562 -4.99609 -0 0 -0 19.1336 -39.3333 11.1629 2.7222 27.6919 -11.0125 -4.84921 -16.1105 -20.1118 1.23533 19.2158 -7.28818 -7.09918 5.69227 -1.53336 2.06856 3.04658 -2.55451 6.22773 0.376677 -1.46443 -5.01925 -10.3473 0.966723 1.32213 26.5541 0.396306 1.49217 10.1226 -0.808283 -0 0 -0 -83.3537 36.7134 -21.1464 19.4263 -6.21126 -35.1746 0 -54.3642 0 0.45036 0.157705 19.3042 -7.125 0 0 -25.1093 -1.1337 47.4175 -0 0 -0 84.8189 33.8443 7.23188 -26.1891 -12.3402 49.8547 0 -28.1886 0 166.556 3.73483 -15.2427 7.125 0 -0 179.934 -12.1828 -135.315 
-0.508855 0.87158 0.68956 -4.80814 -7.20416 -168.352 -0 0 -0 -30.0748 -5.46793 2.70703 -1.18487 18.8389 7.13347 2.06482 -17.8022 4.47613 -0.590288 -13.4619 -4.99826 -0 0 -0 18.3271 -39.3599 9.41472 2.89165 28.4478 -11.3727 -4.88002 -16.0734 -20.3945 1.21481 19.063 -7.22538 -6.90293 5.75443 -1.90892 2.16571 3.08152 -3.05552 6.23516 0.454595 -1.72065 -5.39158 -10.3099 0.778978 1.51042 26.6876 0.1164 1.57094 10.1732 -0.967715 -0 0 -0 -82.1053 39.3062 -24.0171 19.301 -6.12388 -34.9245 0 -53.7151 0 4.25137 1.62661 20.9 -7.125 0 0 -21.1561 -1.74243 49.4926 -0 0 -0 83.8209 37.0634 9.28186 -26.4238 -12.6149 50.4237 0 -28.8478 0 168.399 3.42008 -16.2034 7.125 0 -0 179.736 -13.9696 -136.094 
-0.50971 0.87054 0.68326 -4.87799 -7.24864 -167.419 -0 0 -0 -30.0061 -5.11078 3.07273 -1.1833 18.8272 7.12863 1.81738 -17.6504 3.59977 -0.713101 -14.7586 -5.50216 -0 0 -0 17.641 -39.4221 7.52355 3.04806 29.1193 -11.6975 -4.85336 -16.1708 -19.9823 1.33074 19.9047 -7.57303 -6.57146 5.75585 -2.28553 2.27649 3.00487 -3.53967 6.18318 0.438844 -1.95556 -5.50496 -10.0816 0.589198 1.43244 26.7026 -0.164325 1.50871 10.1458 -1.13017 -0 0 -0 -80.4642 42.5464 -26.7364 19.5536 -6.30077 -35.429 0 -55.7109 0 10.4984 4.94254 24.9351 -7.125 0 0 -14.2452 -2.45056 54.5598 -0 0 -0 82.6654 40.7622 11.1424 -26.5165 -12.7247 50.6497 0 -28.885 0 169.866 3.36476 -18.1796 7.125 0 -0 179.208 -15.316 -137.996 
-0.50936 0.869485 0.676465 -5.01292 -7.41403 -167.43 -0 0 -0 -30.0015 -4.7402 3.67037 -1.14447 18.5302 7.00726 1.7393 -17.684 3.27459 -0.756956 -15.1916 -5.67192 -0 0 -0 17.882 -39.0946 7.29438 3.14895 29.5407 -11.9035 -4.44553 -15.0421 -20.4561 1.38334 20.2728 -7.72627 -6.90288 5.57116 -2.26721 2.54125 3.06321 -3.52394 6.63688 0.639623 -1.96792 -5.76565 -10.8659 0.368914 1.29625 27.2042 -0.352717 1.48062 10.4931 -1.27218 -0 0 -0 -78.0171 45.9528 -30.3833 19.9536 -6.58792 -36.2337 0 -59.6561 0 17.3521 10.3168 29.8193 -7.125 0 0 -5.98902 -1.74603 61.1946 -0 0 -0 80.5923 44.3259 13.8928 -26.3613 -12.5412 50.2715 0 -26.9938 0 170.118 3.62896 -19.9681 7.125 0 -0 178.705 -15.429 -139.858 
-0.508825 0.87136 0.671305 -5.13301 -7.83749 -167.253 -0 0 -0 -30.2439 -4.33174 3.45639 -1.04917 17.7767 6.70133 1.86543 -17.1951 4.07565 -0.991072 -17.2984 -6.50868 -0 0 -0 18.2144 -38.7054 9.41914 3.14682 29.5315 -11.8991 -4.21665 -13.6579 -23.6712 1.86883 23.3333 -9.03288 -7.0763 5.51686 -2.30478 2.73552 3.04506 -3.58006 6.94149 0.685881 -2.00314 -6.06346 -11.3801 0.0782382 1.36449 27.282 -0.656422 1.4952 10.6372 -1.42072 -0 0 -0 -74.6301 49.1306 -34.7359 20.4091 -6.92499 -37.1571 0 -64.0653 0 22.803 17.5328 35.6234 -7.125 0 0 1.68386 0.755144 69.1469 -0 0 -0 78.2767 48.1045 16.8271 -25.994 -12.1162 49.3866 0 -21.7025 0 168.517 4.69926 -21.9643 7.125 0 -0 178.309 -13.574 -142.169 
-0.50883 0.873155 0.66535 -4.80027 -8.06712 -166.952 -0 0 -0 -29.9659 -3.83754 3.19537 -0.988144 17.274 6.4988 1.96921 -15.9953 5.37123 -0.885155 -16.3836 -6.14294 -0 0 -0 18.7712 -37.9591 11.1621 3.0407 29.0886 -11.6824 -3.99112 -12.6437 -27.1147 1.94733 23.7811 -9.22933 -6.55762 5.84355 -2.38912 3.01967 2.68766 -3.67735 6.99354 0.135217 -2.00861 -6.14216 -11.2398 -0.109602 1.14877 27.4034 -0.910248 1.38376 10.6656 -1.58957 -0 0 -0 -72.78 51.8826 -37.4593 20.8254 -7.24288 -38.0087 0 -66.5205 0 25.1469 25.0318 42.0298 -7.125 0 0 6.79506 4.31493 77.2698 -0 0 -0 76.5813 50.614 19.1336 -26.2532 -12.4149 50.01 0 -26.2294 0 172.449 3.16916 -22.6378 7.125 0 -0 177.75 -17.5912 -142.407 
